<?xml version="1.0" encoding="utf-8"?>
<!-- Generator: Adobe Illustrator 24.0.2, SVG Export Plug-In . SVG Version: 6.00 Build 0)  -->
<svg version="1.1" xmlns="http://www.w3.org/2000/svg" xmlns:xlink="http://www.w3.org/1999/xlink" x="0px" y="0px"
	 viewBox="0 0 1920 1080" style="enable-background:new 0 0 1920 1080;" xml:space="preserve">
<style type="text/css">
	.st0{fill:#6D6D6D;}
	.st1{fill:#050505;}
	.st2{display:none;}
	.st3{display:inline;opacity:0.5;fill:none;stroke:#E900BE;stroke-width:8;stroke-miterlimit:10;}
</style>
<g id="Layer_2_1_">
	<path class="st0" d="M581.3,214.6c22.3-20.9,47.9-37.9,75.7-50.4c22.2-10,46.5-19.2,54.5-21.6c31-9.5,103.6-16.5,119.2-16.3
		c86.1,0.8,158.3,12,204.4,66.9c0.1,0.1,0.1,0.2,0.2,0.2c34.7,53.6,27.1,123.1,21.3,144.6c0,0.1,0,0.1,0,0.2
		c-2.1,13-3.7,28.7-8.9,30.2c-5.1,1.4-0.2-42.1-1-70.3c0-0.1,0-0.3,0-0.4c5.3-32.8-16.4-88.5-38.8-107.4
		c-20-16.9-36.5-30.7-87.2-34.9c-31.9-1-48.9-1-77.7,4.1c-24.9,4.4-22.5,89.5-20.5,121.4c6.1,97-5.1,222.2-5.1,222.2
		s-4.4,103.6,0.4,154c2.1,22.4,18,42.1,39.7,48.1c34,9.4,84.4,4.9,125.6-7.6c35.5-10.8,52-48.3,48.2-85.2
		c-5.2-50.5-12.5-91.5-14.4-125.1c-0.2-3.2,2.4-70.1,8.3-79.6c4.7-7.5,6.8,63,12.2,72.6c5.1,9.1,18.5,8.1,22.1-1.7
		c7.3-19.7,20.8-68.9,31.6-70.9c15.2-2.8-34.3,122.2-36.8,136.8c-0.1,0.5-0.2,1.1-0.3,1.6c-0.4,2.4-1,4.9-1.7,7.2
		c-7,22.9-21.7,89.5,5.1,101.8c14.7,6.7,25.3,1.3,33.2-4c11-7.3,23.1-18.8,32.1-28.7c2.6-2.9,12.7-16.9,14.5-19.1
		c11.9-14.3,14.5-22.7,24.4-39.3c2-3.4,11.8-22.3,14.1-27.5c11-24.4,31.3-66.7,31.7-87.3c0.6-28.3-0.8-35.6-3.2-66.4
		c-6.5-83.1-64.1-185.6-138.1-243.5C960,56.3,872.7,57.8,829.8,56.3c-110.5-3.8-194.5,51-225.4,74.6
		C506.9,205.4,481,289,477.9,296.3c-10.5,25.3-19.7,58.6-24.1,101.1c-0.3,2.5,3.2,3.5,4.3,1.2c4-8.5,8.2-15.4,10.9-20.5
		c13.8-26.2,11.7-23.4,19.7-37.8c12.9-23.2,15.2-25.1,18.9-31.3c0,0,10.1-15.3,17.2-23.9c14.8-17.8,28.7-42.6,44.1-58.9L581.3,214.6
		z"/>
	<path class="st1" d="M1185.6,532.9c-30.6,84.8-92.6,145.8-151.8,162.2c-0.3,0.1-0.7,0.2-1,0.3c-78.1,31.9-158,31.7-153.6,31
		c-17.2-1.3-40.7-10.3-48.5-15.6c-12.3-8.3-22.5-16.7-25.3-67.8c-1.6-29.5,0.9-54,1.9-96.6c0.9-42.6,1-42.3,0.9-42.6l-1.9-93.8
		c0,0,1.7-132.3,0.1-146.3c0-0.4-0.1-0.8,0-1.2c2.3-50.9,9.8-89.9-5.3-100.3c-6.1-6.9-49.5-3.7-66-2.6
		c-36.1,2.3-73.9,21.4-110.6,45.8c-35.8,23.9-63.2,63-72.8,75c-17.4,22-42.6,57.4-44,59.9c-8.5,15.7-53,64.7-53.8,127.8l0.8,11.7
		c0,0,0,0.1,0,0.1c0.2,1.3,3.2,24.1,3.2,24.3c13.2,81.1,50.8,136.5,63.8,154.8c0.1,0.1,22.7,31.5,28,35.5
		c35.8,26.9,57.1-28.2,73.7-130.3c2.9-17.8,6.5-32.3,20.2-28c5.7,1.8,38.1,10.8,35.6,37.9c-0.6,6-17.6,18.8-28.5,34.8
		c-14.1,20.8-35.8,53-36.4,53.8c-22.5,31.4-50.1,49.5-21.4,72.5c0.1,0.1,0.1,0.1,0.2,0.2c8.1,8.4,45,32.3,52.5,35.9
		c11.2,5.8,80.8,46.9,179.1,48.3c109,3.4,202.6-46,254.4-92.6c11.2-10,40.8-36.4,63.5-71.9c38.2-59.8,46-89.8,55.7-125.6
		c0-0.1,0-0.1,0.1-0.2c1.1-2.9,3.4-15.4,5.3-27.5c0.4-2.7-3.4-3.7-4.3-1.1L1185.6,532.9z M692.9,377.3c3.4-14,15.8-50.8,35.2-54.6
		c29.8-5.8,4.7,144.7-0.7,151.9c-7.7,10.1-29.8,4-37.1-3.3c-0.1-0.1-2-1.8-4.5-4.1c-9.3-8.5-13-21.7-9.4-33.8L692.9,377.3z"/>
</g>
<g id="Layer_3" class="st2">
	<circle class="st3" cx="829.8" cy="439.9" r="377.8"/>
</g>
</svg>
